<?xml version="1.0" encoding="UTF-8"?>
<svg width="1270px" height="644px" opacity="0.8" viewBox="0 0 1270 644" version="1.1" xmlns="http://www.w3.org/2000/svg" xmlns:xlink="http://www.w3.org/1999/xlink">
    <title>Group 12</title>
    <g id="Landing-Pages" stroke="none" stroke-width="1" fill="none" fill-rule="evenodd" opacity="0.1" stroke-dasharray="5" stroke-linecap="square">
        <g id="landing-copy" transform="translate(-176.000000, -188.000000)" stroke="#979797">
            <g id="Group-12" transform="translate(176.500000, 188.000000)">
                <g id="Group-7" transform="translate(0.500000, 42.000000)">
                    <line x1="0.5" y1="0.5" x2="1237.5" y2="0.5" id="Line"></line>
                    <line x1="0.5" y1="110.5" x2="1237.5" y2="110.5" id="Line"></line>
                    <line x1="0.5" y1="220.5" x2="1267.5" y2="220.5" id="Line"></line>
                    <line x1="0.5" y1="330.5" x2="1237.5" y2="330.5" id="Line"></line>
                    <line x1="0.5" y1="440.5" x2="1162.5" y2="440.5" id="Line"></line>
                </g>
                <g id="Group-6" transform="translate(286.500000, 322.000000) rotate(-90.000000) translate(-286.500000, -322.000000) translate(-35.000000, 46.500000)">
                    <line x1="51.2221325" y1="0.5" x2="600.777868" y2="0.5" id="Line" transform="translate(326.000000, 0.500000) scale(1, -1) translate(-326.000000, -0.500000) "></line>
                    <line x1="0.259693053" y1="110.5" x2="642.740307" y2="110.5" id="Line" transform="translate(321.500000, 110.500000) scale(1, -1) translate(-321.500000, -110.500000) "></line>
                    <line x1="0.259693053" y1="220.5" x2="642.740307" y2="220.5" id="Line" transform="translate(321.500000, 220.500000) scale(1, -1) translate(-321.500000, -220.500000) "></line>
                    <line x1="51.2221325" y1="330.5" x2="600.777868" y2="330.5" id="Line" transform="translate(326.000000, 330.500000) scale(1, -1) translate(-326.000000, -330.500000) "></line>
                    <line x1="0.259693053" y1="440.5" x2="642.740307" y2="440.5" id="Line" transform="translate(321.500000, 440.500000) scale(1, -1) translate(-321.500000, -440.500000) "></line>
                    <line x1="51.2221325" y1="550.5" x2="600.777868" y2="550.5" id="Line" transform="translate(326.000000, 550.500000) scale(1, -1) translate(-326.000000, -550.500000) "></line>
                </g>
                <g id="Group-6" transform="translate(946.500000, 322.000000) rotate(-90.000000) translate(-946.500000, -322.000000) translate(639.000000, 46.500000)">
                    <line x1="37.2221325" y1="0.5" x2="586.777868" y2="0.5" id="Line" transform="translate(312.000000, 0.500000) scale(1, -1) translate(-312.000000, -0.500000) "></line>
                    <line x1="37.2221325" y1="110.5" x2="586.777868" y2="110.5" id="Line" transform="translate(312.000000, 110.500000) scale(1, -1) translate(-312.000000, -110.500000) "></line>
                    <line x1="37.233441" y1="220.5" x2="614.766559" y2="220.5" id="Line" transform="translate(326.000000, 220.500000) scale(1, -1) translate(-326.000000, -220.500000) "></line>
                    <line x1="0.236268174" y1="330.5" x2="584.763732" y2="330.5" id="Line" transform="translate(292.500000, 330.500000) scale(1, -1) translate(-292.500000, -330.500000) "></line>
                    <line x1="0.248384491" y1="440.5" x2="614.751616" y2="440.5" id="Line" transform="translate(307.500000, 440.500000) scale(1, -1) translate(-307.500000, -440.500000) "></line>
                    <line x1="27" y1="550" x2="614.766559" y2="549.5" id="Line" transform="translate(321.000000, 550.000000) scale(1, -1) translate(-321.000000, -550.000000) "></line>
                </g>
            </g>
        </g>
    </g>
</svg>